<svg width="151" height="156" viewBox="0 0 151 156" fill="none" xmlns="http://www.w3.org/2000/svg">
    <rect width="151" height="156" fill="white" />
    <path
        d="M81.5254 108.316C80.9857 110.602 81.9701 111.942 84.1441 112.053C84.792 112.087 85.45 112.02 86.0894 112.104C88.8451 112.468 91.0853 111.578 92.8639 109.454C93.9844 108.115 95.4105 107.45 97.1338 106.988C99.4159 106.378 101.646 105.415 103.745 104.313C107.367 102.413 107.463 98.7383 103.901 96.7486C101.492 95.4025 98.8356 94.5009 96.3069 93.3624C95.605 93.0463 94.8956 92.6757 94.3127 92.1843C93.5537 91.5444 92.9036 90.7717 92.2313 90.0336C91.0486 88.7353 89.5596 88.169 87.8366 88.1341C86.8882 88.1149 85.9381 88.1289 84.9916 88.0761C83.5924 87.998 82.5392 88.5662 81.9667 89.8119C81.4122 91.0184 81.94 92.0347 82.814 92.9068C83.0227 93.1151 83.2214 93.3333 83.5241 93.6514C81.2361 95.2235 80.9593 97.572 80.9007 99.9988C80.8429 102.393 80.951 104.737 83.2132 106.334C82.6143 107.027 82.1019 107.62 81.5254 108.316ZM97.524 96.0354C99.3544 96.926 101.232 97.7322 103.001 98.7317C104.638 99.6567 104.638 101.323 103.027 102.282C97.6539 105.482 91.894 106.509 85.7505 105.177C84.0958 104.818 83.2927 103.684 83.1856 102.098C83.0985 100.809 83.1387 99.4984 83.2628 98.2111C83.4549 96.2194 84.3782 95.3121 86.3833 94.9905C90.1066 94.3933 93.7465 94.7931 97.524 96.0354ZM89.2541 90.5849C90.0057 91.1628 90.7574 91.7408 91.7836 92.5299C89.9804 92.6065 88.6081 92.6433 87.2388 92.7286C85.5488 92.8339 84.7626 92.3185 84.1048 90.6491C85.7228 90.6044 87.3785 90.5586 89.2541 90.5849ZM90.0267 108.968C88.0026 110.711 85.7648 109.694 83.5116 109.531C84.1956 108.647 84.9433 107.578 85.775 107.508C87.453 107.367 89.1767 107.769 91.0791 107.968C90.6969 108.332 90.4533 108.564 90.0267 108.968Z"
        fill="#367FFF" />
    <path
        d="M74.6548 103.422C76.1374 104.637 77.7846 104.131 79.3634 104.044C79.5327 104.034 79.8241 103.387 79.7778 103.078C79.7238 102.718 79.3839 102.137 79.1278 102.115C77.8542 102.004 76.5608 101.976 75.2904 102.093C75.0322 102.116 74.8427 102.888 74.6548 103.422Z"
        fill="#367FFF" />
    <path
        d="M76.8094 99.8877C76.4542 99.4531 76.1267 98.9147 75.7249 98.8519C74.7578 98.7007 73.7333 98.6429 72.7777 98.8096C72.3125 98.8907 71.9497 99.559 71.5405 99.9615C71.9534 100.289 72.3301 100.818 72.7869 100.9C73.6996 101.064 74.672 101.089 75.5879 100.955C76.0302 100.89 76.4004 100.334 76.8094 99.8877Z"
        fill="#367FFF" />
    <path
        d="M76.0758 95.7051C75.5574 96.1702 75.1562 96.6257 74.7549 97.0813C75.267 97.3593 75.753 97.7843 76.2973 97.8809C77.1184 98.0266 78.0024 98.0618 78.8157 97.9093C79.2536 97.8271 79.5998 97.2564 79.9874 96.906C79.615 96.5291 79.2944 95.9221 78.8592 95.8241C78.0042 95.6316 77.0854 95.7221 76.0758 95.7051Z"
        fill="#367FFF" />
    <ellipse cx="3.30865" cy="3.26665" rx="3.30865" ry="3.26665"
        transform="matrix(0.724404 -0.689376 -0.689376 -0.724404 95.999 104.968)" fill="#367FFF" />
    <ellipse cx="1.19987" cy="1.19987" rx="1.19987" ry="1.19987"
        transform="matrix(0.724404 -0.689376 -0.689376 -0.724404 96.0742 101.999)" fill="white" />
    <path
        d="M85.601 97.495C85.5403 99.3978 85.4144 101.195 85.4798 102.986C85.4972 103.461 86.0283 104.209 86.4531 104.316C87.321 104.533 87.6296 103.831 87.6452 103.026C87.6809 101.18 87.7258 99.3348 87.7691 97.489C87.7864 96.7524 87.7676 96.0404 86.76 96.0088C85.7959 95.9786 85.6102 96.6086 85.601 97.495Z"
        fill="#367FFF" />
    <path
        d="M69.118 73.0425C73.3222 73.0425 77.1931 73.0425 81.4014 73.0425C80.548 76.4388 79.7753 79.5144 78.9621 82.7505C70.8399 82.7505 62.874 82.7505 54.658 82.7505C52.9632 91.2285 51.2982 99.5579 49.6106 108C46.0874 108 42.7138 108 39 108C42.8812 87.9148 46.7193 68.0522 50.5941 48C63.307 48 76.0356 48 89.0443 48C88.1962 51.2197 87.3604 54.3924 86.4563 57.8242C77.4554 57.8242 68.5127 57.8242 59.4348 57.8242C58.4165 62.9383 57.4488 67.7986 56.4047 73.0425C60.6664 73.0425 64.7256 73.0425 69.118 73.0425Z"
        fill="#367FFF" />
</svg>